# xmcd
#
# Track frame offsets:
#	150
#	10250
#	30875
#	45050
#	63050
#	84225
#	102100
#	131475
#	152262
#	171000
#	201675
#	218650
#	233550
#	252737
#	288687
#	317775
#	330475
#
# Disc length: 4553 seconds
#
# Revision: 2
# Processed by: cddbd v1.5.1PL0 Copyright (c) Steve Scherf et al.
# Submitted via: audiograbber 1.82.02
#
DISCID=d511c711
DTITLE=Stevie Ray Vaughan - The Best of Stevie Ray Vaughan
DYEAR=1993
DGENRE=Blues
TTITLE0=Boot Hill
TTITLE1=Superstition
TTITLE2=Look At Little Sister
TTITLE3=Cold Shot
TTITLE4=Couldn't Stand The Weather
TTITLE5=Change It
TTITLE6=Texas Flood
TTITLE7=The Sky Is Crying
TTITLE8=Crossfire
TTITLE9=Little Wing
TTITLE10=Love Struck Baby (Live)
TTITLE11=Love Me Darlin'
TTITLE12=Mary Had A Little Lamb (Live)
TTITLE13=Voodoo Chile (Slight Return)
TTITLE14=Ain't Gone 'n' Give Up On Love (Live)
TTITLE15=Lookin' Out The Window
TTITLE16=Life By The Drop
EXTD=
EXTT0=
EXTT1=
EXTT2=
EXTT3=
EXTT4=
EXTT5=
EXTT6=
EXTT7=
EXTT8=
EXTT9=
EXTT10=
EXTT11=
EXTT12=
EXTT13=
EXTT14=
EXTT15=
EXTT16=
PLAYORDER=
